<svg width="16" height="16" viewBox="0 0 16 16" fill="none" xmlns="http://www.w3.org/2000/svg">
<path d="M3.62336 12.7819L1.59668 11.9262C2.37733 10.455 2.90276 9.11886 3.17299 7.91786C3.47324 6.68684 3.62336 5.56091 3.62336 4.54006C3.62336 4.26983 3.62336 4.01462 3.62336 3.77442C3.62336 3.53422 3.60835 3.27901 3.57832 3.00879H6.59583C6.59583 3.09886 6.59583 3.18894 6.59583 3.27901C6.59583 3.36909 6.59583 3.44415 6.59583 3.5042C6.59583 5.18559 6.35563 6.79193 5.87523 8.3232C5.39483 9.82444 4.64421 11.3107 3.62336 12.7819ZM11.0996 12.7819L9.07288 11.9262C9.82351 10.455 10.3339 9.11886 10.6042 7.91786C10.9044 6.68684 11.0545 5.56091 11.0545 4.54006C11.0545 4.26983 11.0545 4.01462 11.0545 3.77442C11.0545 3.53422 11.0395 3.27901 11.0095 3.00879H14.027C14.057 3.09886 14.072 3.18894 14.072 3.27901C14.072 3.36909 14.072 3.44415 14.072 3.5042C14.072 5.18559 13.8168 6.79193 13.3064 8.3232C12.826 9.82444 12.0904 11.3107 11.0996 12.7819Z" fill="#666666"/>
</svg>
