<svg width="169" height="28" viewBox="0 0 169 28" fill="none" xmlns="http://www.w3.org/2000/svg">
    <path d="M15.6073 8.74442C15.6073 12.8093 13.1468 16.5005 8.35445 17.3658L15.1137 25.3691L15.7253 24.5102L27.9005 7.2645V-1.14441e-05H8.10791C13.145 0.492722 15.6048 4.67722 15.6048 8.74212" fill="#F3AB0D"/>
    <path d="M19.0521 26.7116L28.0271 14.1518V27.9449H18.1537L19.0521 26.7116ZM1.72209 13.6573H6.39184C9.83029 13.6573 11.5552 11.1977 11.5552 8.73289C11.5552 6.26692 9.83086 3.92917 6.39184 3.92917H0V27.9449H11.9284L1.72209 15.6294V13.6576" fill="#283271"/>
    <path d="M68.9644 23.7794H73.0228V4.81459H68.9644V23.7794Z" fill="#283271"/>
    <path d="M81.8797 16.1325C80.2767 16.1325 78.9263 15.6398 77.8213 14.5333C76.7163 13.4219 76.0986 12.0688 76.0986 10.4684C76.0986 8.86802 76.7163 7.51027 77.8213 6.40348C78.9249 5.2967 80.2756 4.67806 81.8797 4.67806H103.15V8.74296H81.8797C81.388 8.74296 81.0161 8.98928 80.6487 9.2357C80.2767 9.48198 80.1567 9.97451 80.1567 10.4687C80.1567 10.9611 80.4026 11.3277 80.6487 11.7017C80.8961 12.0679 81.388 12.1941 81.8797 12.1941H97.3671C98.9637 12.1941 100.32 12.8067 101.425 13.9135C102.53 15.0263 103.148 16.3795 103.148 17.9784C103.148 19.5773 102.53 20.9365 101.425 22.0433C100.32 23.1501 98.9635 23.7687 97.3671 23.7687H76.0992V19.5773H97.3671C97.8605 19.5773 98.2324 19.3311 98.5981 19.0832C98.9637 18.8369 99.09 18.3504 99.09 17.858C99.09 17.3638 98.8441 16.9912 98.5981 16.625C98.3522 16.2524 97.8605 16.1308 97.3671 16.1308H81.8797" fill="#283271"/>
    <path d="M114.571 4.80598H132.154V8.87088H114.571C113.101 8.87088 111.87 9.3573 110.76 10.4701C109.655 11.5769 109.163 12.8084 109.163 14.2878C109.163 15.7608 109.655 16.9938 110.76 18.1055C111.871 19.2108 113.102 19.7047 114.571 19.7047H132.154V23.7696H114.571C111.989 23.7696 109.778 22.9046 107.93 21.059C106.087 19.212 105.228 16.9941 105.228 14.4068C105.228 11.8224 106.087 9.60309 107.93 7.7575C109.779 5.79174 111.988 4.80511 114.571 4.80511" fill="#283271"/>
    <path d="M66.0083 23.7793L60.598 16.2647C62.0687 16.1431 63.2997 15.6507 64.2862 14.5439C65.3912 13.4325 66.0088 12.0794 66.0088 10.479C66.0088 8.87861 65.3912 7.52087 64.2862 6.41409C63.1812 5.3073 61.8241 4.68865 60.2278 4.68865H38.957V23.6534H43.0154V16.2653H55.5551L60.9654 23.7799L66.0083 23.7793ZM43.0154 8.87947H60.2278C60.7211 8.87947 61.0931 9.12576 61.4588 9.36589C61.8244 9.61217 61.9507 10.1064 61.9507 10.5989C61.9507 11.0916 61.7048 11.4639 61.4588 11.8319C61.2129 12.2044 60.7211 12.3246 60.2278 12.3246H43.0154V8.88062" fill="#283271"/>
    <path d="M152.456 23.7794L141.392 4.81459H146.061L154.789 19.8352L163.518 4.81459H168.193L157.123 23.7794" fill="#F3AB0D"/>
    <path d="M134.633 16.1325H142.623V12.4356H134.633V16.1325Z" fill="#F3AB0D"/>
</svg>